<svg xmlns="http://www.w3.org/2000/svg" viewBox="0 0 200 50" fill="none">
  <path d="M35 12C40 12 44 16 44 21V39C44 44 40 48 35 48C30 48 26 44 26 39V21C26 16 30 12 35 12Z" fill="#4285F4"/>
  <path d="M54 42C51.5 46.3 46 47.8 41.7 45.3C37.4 42.8 36 37.3 38.5 33L52.2 9.3C54.7 5 60.2 3.5 64.5 6C68.8 8.5 70.3 14 67.8 18.3L54 42Z" fill="#34A853"/>
  <circle cx="57" cy="39" r="9" fill="#FBBC04"/>
  <text x="78" y="28" font-family="'Helvetica Neue', Arial, sans-serif" font-size="20" font-weight="600">
    <tspan fill="#4285F4">G</tspan><tspan fill="#EA4335">o</tspan><tspan fill="#FBBC05">o</tspan><tspan fill="#4285F4">g</tspan><tspan fill="#34A853">l</tspan><tspan fill="#EA4335">e</tspan>
  </text>
  <text x="159" y="28" font-family="'Helvetica Neue', Arial, sans-serif" font-size="20" font-weight="400" fill="#999">Ads</text>
</svg>