<svg xmlns="http://www.w3.org/2000/svg" width="280" height="72" viewBox="0 0 280 72" fill="none">
  <rect width="280" height="72" rx="18" fill="#FFF7ED"/>
  <path d="M52 18C44.8 18 39 23.8 39 31C39 41.5 52 54 52 54C52 54 65 41.5 65 31C65 23.8 59.2 18 52 18ZM52 36C49.2 36 47 33.8 47 31C47 28.2 49.2 26 52 26C54.8 26 57 28.2 57 31C57 33.8 54.8 36 52 36Z" fill="#EA580C"/>
  <path d="M76 24H94L98 31V49H72V31L76 24Z" fill="#FDBA74"/>
  <path d="M72 31H98" stroke="#9A3412" stroke-width="3"/>
  <text x="112" y="33" font-family="Arial, Helvetica, sans-serif" font-size="22" font-weight="700" fill="#7C2D12">Local</text>
  <text x="112" y="54" font-family="Arial, Helvetica, sans-serif" font-size="18" font-weight="600" fill="#9A3412">Commerce</text>
</svg>