<svg xmlns="http://www.w3.org/2000/svg" viewBox="0 0 170 50" fill="none">
  <path d="M18 38C18 24.4 25.3 13.5 33.2 13.5C38 13.5 42.9 17.8 48 26.3C53 17.8 57.8 13.5 62.5 13.5C70.5 13.5 77.8 24.4 77.8 38H70.8C70.8 28.8 66.9 21.4 62.7 21.4C59.4 21.4 55.5 25.8 50.3 35.5L47.7 40.4L45 35.5C39.8 25.8 35.8 21.4 32.5 21.4C28.3 21.4 24.4 28.7 24.4 38H18Z" fill="#0866FF"/>
  <text x="88" y="32" font-family="'Helvetica Neue', Arial, sans-serif" font-size="22" font-weight="700" fill="#0866FF">Meta</text>
  <text x="135" y="32" font-family="'Helvetica Neue', Arial, sans-serif" font-size="22" font-weight="400" fill="#999">Ads</text>
</svg>