<svg xmlns="http://www.w3.org/2000/svg" width="250" height="72" viewBox="0 0 250 72" fill="none">
  <rect width="250" height="72" rx="18" fill="#F0FDF4"/>
  <path d="M49.8 24.4C49.6 24.3 49.2 24.2 48.9 24.1C48.7 21.6 47.8 19.4 46.1 18.2C44.6 17.1 42.6 16.8 40.2 17.3C39.8 16.8 39.2 16.5 38.4 16.5C32.3 16.6 29.3 24.1 28.3 27.7C25.9 28.5 24.2 29 24 29.1C22.8 29.5 22.8 29.6 22.6 30.7C22.4 31.6 19.4 55.2 19.4 55.2L43.4 59.3L56.4 56.4C56.4 56.4 50.1 24.5 49.8 24.4Z" fill="#95BF47"/>
  <path d="M44.6 25.7C43.4 25.3 41.8 24.8 40 24.3V18.5C40.6 18.4 41.1 18.5 41.6 18.8C43.3 19.9 44.3 22.3 44.6 25.7Z" fill="#5E8E3E"/>
  <path d="M37.4 18.8V23.5C35.9 23 34.3 22.5 32.9 22.1C34 19.5 35.7 18.7 37.4 18.8Z" fill="#5E8E3E"/>
  <path d="M38.4 31.4L36.8 36.3C36.8 36.3 35.3 35.5 33.3 35.5C30.4 35.5 30.2 37.3 30.2 37.8C30.2 40.2 36.4 41.1 36.4 46.7C36.4 51.1 33.6 53.9 29.8 53.9C25.2 53.9 22.8 51 22.8 51L23.9 47.4C23.9 47.4 26.4 49.5 28.6 49.5C30 49.5 30.6 48.4 30.6 47.5C30.6 44.3 25.5 44.1 25.5 39C25.5 34.8 28.5 30.7 34.5 30.7C36.8 30.7 38.4 31.4 38.4 31.4Z" fill="white"/>
  <text x="78" y="45" font-family="Arial, Helvetica, sans-serif" font-size="30" font-weight="700" fill="#166534">Shopify</text>
</svg>