<svg xmlns="http://www.w3.org/2000/svg" viewBox="0 0 160 50" fill="none">
  <path d="M32 11.6C31.8 11.4 31.4 11.2 31 11.1C30.8 8.8 29.9 6.8 28.3 5.7C26.9 4.7 25 4.4 22.8 4.9C22.4 4.4 21.8 4.1 21.1 4.1C15.4 4.2 12.5 11.1 11.6 14.5C9.3 15.3 7.7 15.7 7.5 15.8C6.4 16.2 6.4 16.3 6.2 17.3C6 18.1 3 40 3 40L25 43.8L37 41.1C37 41.1 31.1 11.7 32 11.6Z" fill="#95BF47"/>
  <path d="M27 12.7C25.9 12.3 24.4 11.8 22.7 11.4V5.9C23.3 5.8 23.8 5.9 24.3 6.2C25.9 7.2 26.8 9.5 27 12.7Z" fill="#5E8E3E"/>
  <path d="M20 6.2V10.6C18.6 10.2 17.1 9.7 15.8 9.3C16.8 6.9 18.4 6.1 20 6.2Z" fill="#5E8E3E"/>
  <text x="46" y="32" font-family="'Helvetica Neue', Arial, sans-serif" font-size="26" font-weight="600" letter-spacing="-0.5" fill="#95BF47">shopify</text>
</svg>