<svg xmlns="http://www.w3.org/2000/svg" width="260" height="72" viewBox="0 0 260 72" fill="none">
  <rect width="260" height="72" rx="18" fill="#0F172A"/>
  <path d="M39 20C42.5 24.8 46.7 27.4 52 28.4V35.2C48.1 35.1 44.3 33.9 41 31.8V43.8C41 54.5 29.2 61.2 19.8 55.9C10.4 50.6 10.7 37.2 20.4 32.4C23.3 31 26.6 30.6 29.7 31.2V38.2C27.6 37.5 25.2 37.6 23.1 38.6C18.1 41 17.9 48 22.7 50.8C27.5 53.6 33.8 50.3 33.8 44.8V16H39V20Z" fill="#25F4EE"/>
  <path d="M43 17C46.5 21.8 50.7 24.4 56 25.4V32.2C52.1 32.1 48.3 30.9 45 28.8V40.8C45 51.5 33.2 58.2 23.8 52.9C14.4 47.6 14.7 34.2 24.4 29.4C27.3 28 30.6 27.6 33.7 28.2V35.2C31.6 34.5 29.2 34.6 27.1 35.6C22.1 38 21.9 45 26.7 47.8C31.5 50.6 37.8 47.3 37.8 41.8V13H43V17Z" fill="#FE2C55"/>
  <path d="M41 18C44.5 22.8 48.7 25.4 54 26.4V33.2C50.1 33.1 46.3 31.9 43 29.8V41.8C43 52.5 31.2 59.2 21.8 53.9C12.4 48.6 12.7 35.2 22.4 30.4C25.3 29 28.6 28.6 31.7 29.2V36.2C29.6 35.5 27.2 35.6 25.1 36.6C20.1 39 19.9 46 24.7 48.8C29.5 51.6 35.8 48.3 35.8 42.8V14H41V18Z" fill="white"/>
  <text x="86" y="33" font-family="Arial, Helvetica, sans-serif" font-size="21" font-weight="700" fill="white">TikTok</text>
  <text x="86" y="54" font-family="Arial, Helvetica, sans-serif" font-size="18" font-weight="600" fill="#CBD5E1">Shop</text>
</svg>