<svg xmlns="http://www.w3.org/2000/svg" viewBox="0 0 200 50" fill="none">
  <path d="M29 10C32.5 14.8 36.7 17.4 42 18.4V25.2C38.1 25.1 34.3 23.9 31 21.8V33.8C31 44.5 19.2 51.2 9.8 45.9C0.4 40.6 0.7 27.2 10.4 22.4C13.3 21 16.6 20.6 19.7 21.2V28.2C17.6 27.5 15.2 27.6 13.1 28.6C8.1 31 7.9 38 12.7 40.8C17.5 43.6 23.8 40.3 23.8 34.8V6H29V10Z" fill="#25F4EE"/>
  <path d="M33 7C36.5 11.8 40.7 14.4 46 15.4V22.2C42.1 22.1 38.3 20.9 35 18.8V30.8C35 41.5 23.2 48.2 13.8 42.9C4.4 37.6 4.7 24.2 14.4 19.4C17.3 18 20.6 17.6 23.7 18.2V25.2C21.6 24.5 19.2 24.6 17.1 25.6C12.1 28 11.9 35 16.7 37.8C21.5 40.6 27.8 37.3 27.8 31.8V4H33V7Z" fill="#FE2C55"/>
  <path d="M31 8C34.5 12.8 38.7 15.4 44 16.4V23.2C40.1 23.1 36.3 21.9 33 19.8V31.8C33 42.5 21.2 49.2 11.8 43.9C2.4 38.6 2.7 25.2 12.4 20.4C15.3 19 18.6 18.6 21.7 19.2V26.2C19.6 25.5 17.2 25.6 15.1 26.6C10.1 29 9.9 36 14.7 38.8C19.5 41.6 25.8 38.3 25.8 32.8V4H31V8Z" fill="white"/>
  <text x="60" y="30" font-family="'Helvetica Neue', Arial, sans-serif" font-size="20" font-weight="800" fill="white">TikTok</text>
  <text x="138" y="30" font-family="'Helvetica Neue', Arial, sans-serif" font-size="20" font-weight="500" fill="#FF004F">Shop</text>
</svg>